# xmcd CD database file
#
# Track frame offsets:
#	150
#	14997
#	27608
#	41919
#	56980
#	70384
#	84803
#	98258
#	112006
#	124611
#	137929
#	149654
#	162984
#	176020
#	188918
#	201080
#	214056
#	227485
#	241711
#	256200
#	271990
#	288475
#	303149
#	316358
#	329143
#	340853
#
# Disc length: 4747 seconds
#
# Revision: 0
# Processed by: cddbd v1.5.2PL0 Copyright (c) Steve Scherf et al.
# Submitted via: CDex 1.70beta2
#
DISCID=8e12891a
DTITLE=Various Artist - The Story Of Big Bands 1914 - 1955
DYEAR=1900
DGENRE=Jazz
TTITLE0=Europe's Society Orchestra, Castle House Rag
TTITLE1=Handy's Orchestra, Ole Miss Rag
TTITLE2=Jim Europe's 369th Infantry 'Hell Fighters' Band, Russian Rag
TTITLE3=Paul Whiteman And His Ambassadoe Orchestra, Wang Wang Blues
TTITLE4=The Virginians, Memphis Blues
TTITLE5=Isham Jones And His Orchestra, Frankie And Johnny
TTITLE6=Ollie Powers' Harmony Syncopters, Play That Thing
TTITLE7=Piron's New Orleans Orchestra, Mama's Gone Goodbye
TTITLE8=Fate Marable's Society Orchestra, Frankie And Johnny
TTITLE9=Fletcher henderson And His Orchestra, Copenhagen
TTITLE10=Original Tuxedo Jazz Orchestra, Black Rag
TTITLE11=Kink Oliver, Someday Sweetheart
TTITLE12=Fletcher Henderson And His Orchestra, The Henderson Stomp
TTITLE13=bennie Moten's Kansas City Orchestra, Kansas City Shuffle
TTITLE14=Jean Goldkette and His Orchestra, My Pretty Girl
TTITLE15=Fletcher Henderson And His Orchestra, St. Louis Shuffle
TTITLE16=Sam Morgan's Jazz Band, Bogalusa Strut
TTITLE17=Duke Ellington And His Orchestra, Black And Tan Fantasy
TTITLE18=Duke Ellington And His Orchestra, Creole Love Call
TTITLE19=All Star Orchestra, Alexander's Ragtime Band
TTITLE20=Duke Ellington And His Orchestra, East St. Louis Toodle-Oo
TTITLE21=paul Witheman And His Orchestra, Sugar
TTITLE22=Duke Ellington And His Cotton Club Orchestra, Black Beauty
TTITLE23=McKinney's Cotton Pickers, Four Or Five Times
TTITLE24=Bennie Moten's Kansas City Orchestra, South
TTITLE25=Fletcher Henderson Orchestra, Hop Off
EXTD=
EXTT0=
EXTT1=
EXTT2=
EXTT3=
EXTT4=
EXTT5=
EXTT6=
EXTT7=
EXTT8=
EXTT9=
EXTT10=
EXTT11=
EXTT12=
EXTT13=
EXTT14=
EXTT15=
EXTT16=
EXTT17=
EXTT18=
EXTT19=
EXTT20=
EXTT21=
EXTT22=
EXTT23=
EXTT24=
EXTT25=
PLAYORDER=
